<svg width="841" height="476" viewBox="0 0 841 476" fill="none" xmlns="http://www.w3.org/2000/svg">
<rect width="841" height="476" fill="white"/>
<path d="M325.777 188.998V204.502L345.397 224.514H356.874L370.925 238.847H386.991L400.493 252.619V259.215L394.647 265.325H386.227L380.248 259.215H363.725L346.792 276.498L339.859 269.421L339.828 264.744L333.08 258.305H311.316L302.568 249.507V231.341L295.881 224.195L295.973 213.012L296.994 205.066L300.553 201.447H305.916L317.439 188.998H325.777Z" fill="#E6E7E8" stroke="white" stroke-miterlimit="10"/>
<path d="M109.087 219.448H112.548L115.456 222.413H120.179L122.158 224.432V226.786L119.286 229.716V233.581L125.276 239.685L122.491 242.531L119.861 239.842H116.999L113.758 236.531V233.518H110.712H107.379V228.994L109.492 226.844V222.042L108.076 220.604L109.087 219.448Z" fill="#E6E7E8" stroke="white" stroke-miterlimit="10"/>
<path d="M336.299 138.412V124.619L346.78 113.932V110.564H364.267L370.703 103.994H385.59L391.743 97.7222V92.8994H379.359H372.636L367.672 97.9576H352.283L342.001 108.445H336.078L325.499 119.242V129.97L336.299 138.412Z" fill="#E6E7E8" stroke="white" stroke-miterlimit="10"/>
<path d="M386.576 46.0315V49.0496L383.904 51.7696H380.237V48.265L382.427 46.0315H386.576Z" fill="#E6E7E8" stroke="white" stroke-miterlimit="10"/>
<path d="M497.671 138.946H495.702L495.374 139.281V141.352H497.538L497.671 141.221V138.946Z" fill="#E6E7E8" stroke="white" stroke-miterlimit="10"/>
<path d="M402.004 50.1057H400.035L399.701 50.4457V52.5171H401.87L402.004 52.3863V50.1057Z" fill="#E6E7E8" stroke="white" stroke-miterlimit="10"/>
<path d="M391.654 57.6904H389.685L389.356 58.0252V60.107H391.525L391.654 59.9658V57.6904Z" fill="#E6E7E8" stroke="white" stroke-miterlimit="10"/>
<path d="M120.42 112.625V117.945L129.497 127.208H133.707V116.36H128.963L125.286 112.609L120.42 112.625Z" fill="#E6E7E8" stroke="white" stroke-miterlimit="10"/>
<path d="M407.435 59.6473H401.84L399.42 57.1731V54.0974H402.328L407.435 59.6473Z" fill="#E6E7E8" stroke="white" stroke-miterlimit="10"/>
<path d="M392.771 49.217V54.1654L395.843 57.2986L398.043 55.0493V50.917H395.202L394.095 49.7924L392.771 49.217Z" fill="#E6E7E8" stroke="white" stroke-miterlimit="10"/>
<path d="M393.735 58.0785V61.7714L395.869 63.9422L396.946 62.8385V60.7619L393.694 57.4456L393.735 58.0785Z" fill="#E6E7E8" stroke="white" stroke-miterlimit="10"/>
<path d="M405.479 57.9526V59.6422L407.376 61.5723L409.145 59.7625V58.1828L405.479 57.9526Z" fill="#E6E7E8" stroke="white" stroke-miterlimit="10"/>
<path d="M409.52 50.6707L408.109 52.104V54.2224L409.53 55.6713L411.14 54.0341V52.1092L409.509 50.4458" fill="#E6E7E8"/>
<path d="M409.52 50.6707L408.109 52.104V54.2224L409.53 55.6713L411.14 54.0341V52.1092L409.509 50.4458" stroke="white" stroke-miterlimit="10"/>
<path d="M384.225 54.3275L386.06 52.4548L387.886 54.3118L386.184 56.0484L384.225 54.3275Z" fill="#E6E7E8" stroke="white" stroke-miterlimit="10"/>
<path d="M381.477 52.5806V55.8498H383.933L385.415 57.3615L387.005 55.7452L385.317 54.0243H383.559V52.5806H381.477Z" fill="#E6E7E8" stroke="white" stroke-miterlimit="10"/>
<path d="M672.947 45.807V34.4824L675.608 31.7676L672.901 29.011H668.183L664.403 32.8661V39.3156L670.454 45.4827L672.947 45.807Z" fill="#E6E7E8" stroke="white" stroke-miterlimit="10"/>
<path d="M693.077 258.18V269.955L707.431 284.596V295.612L729.845 318.481H740.727V308.898H727.994L718.389 299.101H729.476V287.462L712.312 269.955H701.364V258.18H693.077Z" fill="#E6E7E8" stroke="white" stroke-miterlimit="10"/>
<path d="M299.231 129.578V135.394L304.37 140.641H311.436V133.883L307.221 129.578H299.231Z" fill="#E6E7E8" stroke="white" stroke-miterlimit="10"/>
<path d="M191.554 210.047L195.123 206.401H203.01L207.322 202.002H218.435L227.742 211.496V214.258H219.691L217.009 211.527H211.44V219.797L205.348 226.011H202.897L191.672 215.027" fill="#E6E7E8"/>
<path d="M191.554 210.047L195.123 206.401H203.01L207.322 202.002H218.435L227.742 211.496V214.258H219.691L217.009 211.527H211.44V219.797L205.348 226.011H202.897L191.672 215.027" stroke="white" stroke-miterlimit="10"/>
<path d="M413.767 126.522V129.54L411.1 132.26H407.434V128.756L409.623 126.522H413.767Z" fill="#E6E7E8" stroke="white" stroke-miterlimit="10"/>
<path d="M420.869 121.637H417.536L416.977 122.208V125.712H420.648L420.869 125.487V121.637Z" fill="#E6E7E8" stroke="white" stroke-miterlimit="10"/>
<path d="M425.084 133.343H427.197L427.418 133.118V129.268H424.089L423.525 129.838V131.768L425.064 133.337" fill="#E6E7E8"/>
<path d="M425.084 133.343H427.197L427.418 133.118V129.268H424.089L423.525 129.838V131.768L425.064 133.337" stroke="white" stroke-miterlimit="10"/>
<path d="M424.311 117.494H422.342L422.009 117.834V119.911H424.178L424.311 119.775V117.494Z" fill="#E6E7E8" stroke="white" stroke-miterlimit="10"/>
<path d="M457.933 109.495H455.964L455.636 109.83V111.906H457.805L457.933 111.776V109.495Z" fill="#E6E7E8" stroke="white" stroke-miterlimit="10"/>
<path d="M420.145 136.404H418.176L417.848 136.739V138.81H420.017L420.145 138.679V136.404Z" fill="#E6E7E8" stroke="white" stroke-miterlimit="10"/>
<path d="M425.529 133.375H423.56L423.227 133.709V135.781H425.401L425.529 135.645V133.375Z" fill="#E6E7E8" stroke="white" stroke-miterlimit="10"/>
<path d="M397.001 144.841V147.859L399.668 150.579H403.339V147.074L401.15 144.841H397.001Z" fill="#E6E7E8" stroke="white" stroke-miterlimit="10"/>
<path d="M392.382 127.428H387.06V131.241H392.382V127.428Z" fill="#E6E7E8" stroke="white" stroke-miterlimit="10"/>
<path d="M464.416 98.3118V102.972H467.149L470.431 99.63H473.703L476.81 96.4549V89.2103L471.236 83.5244L467.165 87.6776V94.938L464.416 98.3118Z" fill="#E6E7E8" stroke="white" stroke-miterlimit="10"/>
<path d="M462.717 93.7628L465.132 91.2991V79.964L461.327 76.0828L454.912 82.6265V87.9932L461.435 94.652L462.717 93.7628Z" fill="#E6E7E8" stroke="white" stroke-miterlimit="10"/>
<path d="M454.051 77.845L458.158 73.6552V64.7053H450.881L447.969 67.6816L449.835 69.5804L452.353 67.0121V71.8453L450.138 74.0998L454.051 77.845Z" fill="#E6E7E8" stroke="white" stroke-miterlimit="10"/>
<path d="M443.062 78.4102H448.652L451.078 80.8843V83.96H448.165L443.062 78.4102Z" fill="#E6E7E8" stroke="white" stroke-miterlimit="10"/>
<path d="M427.859 60.9758V65.9189L430.931 69.0521L433.131 66.8029V62.6758H430.295L429.182 61.546L427.859 60.9758Z" fill="#E6E7E8" stroke="white" stroke-miterlimit="10"/>
<path d="M498.481 132.183V137.126L501.553 140.259L503.758 138.015V133.883H500.917L499.804 132.753L498.481 132.183Z" fill="#E6E7E8" stroke="white" stroke-miterlimit="10"/>
<path d="M419.98 74.7847V77.9545L421.996 80.0102L424.052 77.9231V74.7847H419.98Z" fill="#E6E7E8" stroke="white" stroke-miterlimit="10"/>
<path d="M445.084 108.921L442.89 106.682H440.033V109.638L442.208 111.855L445.084 108.921Z" fill="#E6E7E8" stroke="white" stroke-miterlimit="10"/>
<path d="M479.299 97.2358V99.0666L481.355 101.164L483.278 99.2026V97.4869L479.299 97.2358Z" fill="#E6E7E8" stroke="white" stroke-miterlimit="10"/>
<path d="M554.715 92.4489V98.8985L561.233 105.557H566.858L574.299 97.9674V89.8806H567.955L565.294 92.5954V96.0739H561.038L558.689 93.6729L557.043 91.9991L554.715 92.4489Z" fill="#E6E7E8" stroke="white" stroke-miterlimit="10"/>
<path d="M577.175 86.9566V90.4037H584.016L589.38 84.9219V79.8794H585.124V83.452L581.662 86.9828L580.006 85.2932H577.242L577.021 87.4692" fill="#E6E7E8"/>
<path d="M577.175 86.9566V90.4037H584.016L589.38 84.9219V79.8794H585.124V83.452L581.662 86.9828L580.006 85.2932H577.242L577.021 87.4692" stroke="white" stroke-miterlimit="10"/>
<path d="M569.477 106.372L571.641 104.16L573.779 106.346V110.719H569.477V106.372Z" fill="#E6E7E8" stroke="white" stroke-miterlimit="10"/>
<path d="M559.859 114.716H564.371L566.776 117.164V119.052H561.597L559.833 117.258L559.859 114.716Z" fill="#E6E7E8" stroke="white" stroke-miterlimit="10"/>
<path d="M552.932 100.237L555.589 102.952V106.483H551.717V102.842L550.732 101.833L552.83 99.6934" fill="#E6E7E8"/>
<path d="M552.932 100.237L555.589 102.952V106.483H551.717V102.842L550.732 101.833L552.83 99.6934" stroke="white" stroke-miterlimit="10"/>
<path d="M573.461 71.8979L571.158 74.2413L573.973 77.1078L576.245 74.7853L573.461 71.8979Z" fill="#E6E7E8" stroke="white" stroke-miterlimit="10"/>
<path d="M576.129 106.713V110.678L579.216 113.821L583.416 109.537V106.598L576.129 106.713Z" fill="#E6E7E8" stroke="white" stroke-miterlimit="10"/>
<path d="M636.956 91.4297L639.105 93.6266H641.643L644.094 91.1263V88.5999H639.73L636.956 91.4297Z" fill="#E6E7E8" stroke="white" stroke-miterlimit="10"/>
<path d="M770.667 164.487L775.57 169.488L785.554 159.309L782.303 155.992L776.236 162.186H769.724L770.667 164.487Z" fill="#E6E7E8" stroke="white" stroke-miterlimit="10"/>
<path d="M769.468 240.072V246.181L773.457 250.251H775.57V243.127L772.75 240.255L769.468 240.072Z" fill="#E6E7E8" stroke="white" stroke-miterlimit="10"/>
<path d="M771.948 251.783H774.764L777.635 254.712L773.794 258.635L771.518 256.313L771.948 251.783Z" fill="#E6E7E8" stroke="white" stroke-miterlimit="10"/>
<path d="M775.026 266.497L773.473 268.082L775.585 270.232L777.144 268.647L775.026 266.497Z" fill="#E6E7E8" stroke="white" stroke-miterlimit="10"/>
<path d="M776.024 274.789H778.055V277.655L776.347 279.402L774.521 277.54V274.485L776.024 274.789Z" fill="#E6E7E8" stroke="white" stroke-miterlimit="10"/>
<path d="M779.602 282.116H775.704V286.096H779.602V282.116Z" fill="#E6E7E8" stroke="white" stroke-miterlimit="10"/>
<path d="M774.784 293.352L778.251 296.883L772.456 302.788L769.866 300.147L772.692 297.265V293.655L774.784 293.352Z" fill="#E6E7E8" stroke="white" stroke-miterlimit="10"/>
<path d="M769.588 306.643H771.608L773.7 308.772L767.747 314.845V321.127L764.813 318.135V310.404L769.588 306.643Z" fill="#E6E7E8" stroke="white" stroke-miterlimit="10"/>
<path d="M764.247 323.241L766.57 325.6L764.088 328.132V335.565L758.642 330.009V322.938L764.247 323.241Z" fill="#E6E7E8" stroke="white" stroke-miterlimit="10"/>
<path d="M769.28 326.108L767.137 328.294V331.239H770.352V327.892L769.28 326.108Z" fill="#E6E7E8" stroke="white" stroke-miterlimit="10"/>
<path d="M172.138 125.649V130.916L175.82 134.672V141.121L162.272 154.936V158.435L158.067 162.735H149.18L154.554 157.253V154.936L151.728 152.054V143.941L169.63 125.649H172.138Z" fill="#E6E7E8" stroke="white" stroke-miterlimit="10"/>
<path d="M172.137 125.649H178.413L183.444 130.781H185.67V126.622L190.316 121.878H194.777V127.208L187.936 134.186L194.987 141.378H199.228L200.751 139.825L209.618 148.863V151.285H202.202L195.521 158.106V153.634L183.254 141.122H175.819V134.672L172.137 130.917V125.649Z" fill="#E6E7E8" stroke="white" stroke-miterlimit="10"/>
<path d="M194.779 121.877H206.374L208.225 123.766H213.748L216.297 121.171V111.604L226.783 100.902H231.465L238.65 93.5842V109.339L243.711 114.497L232.947 125.476V133.286L227.481 138.857V146.786L216.138 158.357V163.541L231.773 179.484H237.993L245.68 187.335L236.178 197.028L230.753 191.504H223.763L216.44 184.035H208.594L197.343 172.485V166.465H195.523V158.106L202.205 151.285H209.625V148.868L200.748 139.824L199.23 141.378H194.99L187.938 134.185L194.779 127.208V121.877Z" fill="#E6E7E8" stroke="white" stroke-miterlimit="10"/>
<path d="M165.203 151.95L170.418 157.269H180.331L189.346 166.465H195.52V153.634L183.254 141.122H175.818L165.203 151.95Z" fill="#E6E7E8" stroke="white" stroke-miterlimit="10"/>
<path d="M253.352 226.231V235.04L245.793 242.745L257.839 255.026L261.613 251.171H266.572L283.346 234.067V225.902L295.976 213.013H278.254L267.49 202.028H259.136V206.134L265.962 213.102V220.707L256.957 229.893L253.352 226.231Z" fill="#E6E7E8" stroke="white" stroke-miterlimit="10"/>
<path d="M311.318 258.306L296.457 273.464V280.087H301.616L306.108 284.669V295.742H312.99L321.723 286.829H325.974V277.654L329.8 273.757H334.969L339.117 277.989H345.327L346.794 276.498L339.861 269.421V263.855L333.082 258.306H311.318Z" fill="#E6E7E8" stroke="white" stroke-miterlimit="10"/>
<path d="M363.669 258.965H380.192L386.171 265.069H394.591V269.688L397.796 272.967H402.74L414.673 285.139V302.783L408.514 309.07H398.417L393.063 314.526H380.043L368.203 302.453H359.767L347.039 289.47V276.054L363.669 258.965Z" fill="#E6E7E8" stroke="white" stroke-miterlimit="10"/>
<path d="M312.991 295.744V304.704L326.545 318.529H337.56V304.898L347.042 295.231V276.312L345.36 278.027H339.119L334.95 273.775H329.801L325.986 277.661V286.831H321.729L312.991 295.744Z" fill="#E6E7E8" stroke="white" stroke-miterlimit="10"/>
<path d="M337.557 318.527H340.223V328.141H363.376L367.715 332.572H382.022L388.001 326.467V314.782H380.099L368.258 302.709H359.823L347.1 289.727V295.198L337.593 304.896L337.557 318.527Z" fill="#E6E7E8" stroke="white" stroke-miterlimit="10"/>
<path d="M388.004 314.782V334.858L393.404 340.366V352.203H400.655L405.455 347.307V327.498L412.244 320.573L408.573 316.822V309.322H398.475L393.122 314.782H388.004Z" fill="#E6E7E8" stroke="white" stroke-miterlimit="10"/>
<path d="M412.242 320.573L417.272 325.699H420.975L429 333.88V345.351L412.447 362.236H406.519L400.698 356.299V352.204L405.478 347.334V327.499L412.242 320.573Z" fill="#E6E7E8" stroke="white" stroke-miterlimit="10"/>
<path d="M393.404 352.204L388.429 357.278H381.168L371.466 367.18L386.758 382.778H396.004L406.521 372.05V362.127L400.757 356.242V352.204H393.404Z" fill="#E6E7E8" stroke="white" stroke-miterlimit="10"/>
<path d="M440.238 346.873H447.53L451.34 342.992L457.725 349.499H464.099V361.137L453.997 371.442V381.349H441.213L432.1 372.049H406.506V362.126H412.449L415.377 359.144H428.228L440.238 346.873Z" fill="#E6E7E8" stroke="white" stroke-miterlimit="10"/>
<path d="M590.105 326.374V320.442L575.444 305.487V299.849L579.649 295.565H606.428L611.218 290.684H620.73L628.996 282.252H639.945V292.369L632.96 299.498L642.396 309.123L650.457 300.9H659.836V311.388L654.221 317.115V331.16L660.431 337.5L654.544 345.409H638.904L615.094 321.122H607.13L601.936 326.374H590.105Z" fill="#E6E7E8" stroke="white" stroke-miterlimit="10"/>
<path d="M683.522 353.883V362.749L674.753 371.694V377.553L681.24 384.164H695.64L705.844 373.75V354.589L710.393 349.955V331.804L700.342 321.557L694.332 327.693L699.132 332.589V342.323L687.799 353.883H683.522Z" fill="#E6E7E8" stroke="white" stroke-miterlimit="10"/>
<path d="M712.87 153.728V140.886L696.722 124.42H690.681L687.112 128.066H668.764L657.99 139.056V150.412L665.938 158.514V168.751L656.164 178.721H647.754L641.195 185.416V194.476H654.738L659.287 189.831H669.246L675.451 196.16V205.884L679.702 210.22L689.05 200.685H698.958L705.727 193.78V185.73H697.573V161.218L704.911 153.733L712.87 153.728Z" fill="#E6E7E8" stroke="white" stroke-miterlimit="10"/>
<path d="M740.494 96.1675L731.756 105.143H724.274L718.967 99.7296H707.911L698.629 109.203V116.316L690.681 124.419H696.722L707.87 135.791V131.156H713.454L716.936 134.708V147.497L728.382 159.172V191.477L736.956 200.223V214.325L758.771 236.587H769.791V213.138L756.33 199.407V174.556L729.705 147.392V132.061L740.494 121.123V96.1675Z" fill="#E6E7E8" stroke="white" stroke-miterlimit="10"/>
<path d="M497.324 143.458V151.137L502.524 156.446V173.399L490.078 186.099V218.175L501.775 230.106V237.052L512.067 247.551V260.219L517.267 265.523V281.498L521.785 286.107H532.964L548.184 270.582H558.932L566.394 278.192L566.05 289.721L575.45 299.848L579.65 295.564H606.428L611.218 290.683H620.731L628.997 282.251V269.954L623.018 263.855V247.995L631.93 238.904H636.622L642.894 232.502V222.406L633.787 213.116V199.767L638.981 194.474H641.197V185.414L647.755 178.719H656.165L665.939 168.749V158.512L657.991 150.41V139.054L665.709 131.182L658.811 124.141V120.814L664.652 114.862V104.965L653.489 93.5776L648.684 98.4841H638.027L635.104 95.5026H626.782L611.839 110.75H595.685L583.598 123.069V131.098L564.353 150.729H552.497L547.307 145.441V133.86H536.641L527.154 143.458H497.324Z" fill="#E6E7E8" stroke="white" stroke-miterlimit="10"/>
<path d="M403.984 152.769V162.692L400.927 165.804V173.065L410.476 182.799V193.098L406.532 197.116V246.996L400.758 252.886V259.623L394.912 265.592V269.944L397.989 273.082H402.799L414.804 285.327V303.039L408.604 309.352V316.817L417.291 325.678H420.978L429.014 333.869V345.35L415.435 359.202H428.229L440.275 346.909H447.531L451.362 343.007L445.736 337.269V333.199L454.982 323.768V304.069L463.043 295.841H487.448L496.853 286.253V242.074L501.776 237.053V230.106L490.078 218.175V186.1L502.529 173.399V156.446L497.324 151.137V143.542L484.92 156.19L476.956 148.062L498.191 126.406V111.765H483.838L475.484 103.25L460.731 118.298H445.157L426.742 137.077V142.585H414.301L403.984 152.769Z" fill="#E6E7E8" stroke="white" stroke-miterlimit="10"/>
<path d="M375.221 133.364H387.077V148.475L371.57 164.298V183.516L363.38 191.87H351.145L355.693 196.504H368.324L378.303 186.33V183.04H383.549L389.738 189.354V197.958H392.897V187.204L384.005 178.134H378.303V169.812L385.877 162.086H395.456L403.984 153.774V162.687L400.928 165.805V173.243L410.471 182.8L410.558 193.099L406.574 197.163L406.41 246.997L400.697 252.829L386.995 238.852H370.929L356.878 224.515H345.401L325.781 204.502V188.998H327.453L333.196 183.14H338.75L347.427 174.289L353.75 180.733L358.97 175.403V149.935L375.221 133.364Z" fill="#E6E7E8" stroke="white" stroke-miterlimit="10"/>
<path d="M158.068 162.734V168.75L161.278 172.029H165.97L170.031 176.172V179.389L164.662 184.866H159.498L153.504 178.756H148.94L146.099 181.659H141.196L140.278 180.718L144.519 176.392V170.701L148.755 166.38V162.781L158.068 162.734Z" fill="#E6E7E8" stroke="white" stroke-miterlimit="10"/>
<path d="M149.45 192.523V191.822V189.003L146.096 185.587V181.659L148.937 178.756H153.501L159.496 184.865H164.66L165.973 183.526L168.778 186.387V189.688L163.773 194.788H151.676L149.45 192.523L144.794 197.11L149.45 192.523Z" fill="#E6E7E8"/>
<path d="M149.45 192.523V191.822V189.003L146.096 185.587V181.659L148.937 178.756H153.501L159.496 184.865H164.66L165.973 183.526L168.778 186.387V189.688L163.773 194.788H151.676L149.45 192.523ZM149.45 192.523L144.794 197.11" stroke="white" stroke-miterlimit="10"/>
<path d="M158.778 194.79V206.653L154.676 210.838H151.512L148.707 208.217V201.38L144.794 197.112L149.373 192.441L151.671 194.79H158.778Z" fill="#E6E7E8" stroke="white" stroke-miterlimit="10"/>
<path d="M133.868 207.86L135.94 209.974L139.109 210.115L144.155 214.974H151.278L151.514 210.837L148.709 208.216V201.379L144.796 197.111H135.232L135.391 206.307L133.868 207.86Z" fill="#E6E7E8" stroke="white" stroke-miterlimit="10"/>
<path d="M163.78 222.753L165.933 220.42V216.565L169.015 213.421V209.388L166.323 206.642H158.775L154.672 210.832L151.513 210.837L151.277 214.975L158.969 222.721L163.78 222.753Z" fill="#E6E7E8" stroke="white" stroke-miterlimit="10"/>
<path d="M170.028 177.166H176.079L181.146 182.329H187.689L197.34 172.485V166.464H189.346L180.33 157.268H170.418L165.203 151.949L162.269 154.936V158.435L158.064 162.735V168.75L161.28 172.03H165.967L170.028 176.172V177.166Z" fill="#E6E7E8" stroke="white" stroke-miterlimit="10"/>
<path d="M167.308 207.651L173.226 201.62L173.129 194.119L168.78 189.689L163.775 194.789H158.775V206.642H166.324L167.308 207.651Z" fill="#E6E7E8" stroke="white" stroke-miterlimit="10"/>
<path d="M173.128 198.781V194.12L168.78 189.69V186.389L165.975 183.528L170.031 179.39V177.167H176.082L181.149 182.335H187.143V188.1L182.974 192.352V201.621H173.226L173.128 198.781Z" fill="#E6E7E8" stroke="white" stroke-miterlimit="10"/>
<path d="M166.18 234.71H172.185L175.739 231.085L176.216 220.791L169.016 213.421L165.934 216.564V220.419L163.709 222.779H162.329V230.907L166.18 234.841" fill="#E6E7E8"/>
<path d="M166.18 234.71H172.185L175.739 231.085L176.216 220.791L169.016 213.421L165.934 216.564V220.419L163.709 222.779H162.329V230.907L166.18 234.841" stroke="white" stroke-miterlimit="10"/>
<path d="M204.14 205.239L187.141 188.098L182.972 192.351V201.62L191.551 210.046L195.12 206.401H203.007L204.14 205.239Z" fill="#E6E7E8" stroke="white" stroke-miterlimit="10"/>
<path d="M213.197 201.898L202.192 190.673L189.746 190.725L204.141 205.24L207.32 202.002L213.197 201.898Z" fill="#E6E7E8" stroke="white" stroke-miterlimit="10"/>
<path d="M136.383 176.602L130.942 182.146L140.419 191.818L135.229 197.111H144.793L149.373 192.44V189.009L146.055 185.63V181.66H141.193L140.275 180.718L136.383 176.602Z" fill="#E6E7E8" stroke="white" stroke-miterlimit="10"/>
<path d="M133.867 207.86L131.441 210.339V215.523L135.241 219.399V226.283L141.498 232.669L146.097 227.983V214.974H144.154L139.108 210.114L135.939 209.973L133.867 207.86Z" fill="#E6E7E8" stroke="white" stroke-miterlimit="10"/>
<path d="M146.101 214.975V227.984L141.496 232.67V238.356L144.696 241.615H151.234L154.578 238.21L157.229 235.652H159.726L162.767 238.759H166.172V234.841L162.326 230.908V222.779L158.967 222.721L151.275 214.975H146.101Z" fill="#E6E7E8" stroke="white" stroke-miterlimit="10"/>
<path d="M182.976 201.619L191.555 210.046V215.146L186.022 220.79H176.217L169.017 213.42V209.387L167.31 207.651L173.227 201.614L182.976 201.619Z" fill="#E6E7E8" stroke="white" stroke-miterlimit="10"/>
<path d="M234.587 195.406L230.751 191.504H223.762L216.439 184.035H208.593L202.137 190.615L213.198 201.903H218.434L223.326 206.893L234.587 195.406Z" fill="#E6E7E8" stroke="white" stroke-miterlimit="10"/>
<path d="M340.227 328.143V346.707L353.436 360.176H364.605L371.467 367.18L381.169 357.278H388.425L393.404 352.204V340.367L388.005 334.859V326.563L382.071 332.615H367.718L363.354 328.169L340.227 328.143Z" fill="#E6E7E8" stroke="white" stroke-miterlimit="10"/>
<path d="M258.319 133.81L249.678 142.623H238.612L233.084 133.585L227.479 138.857V146.787L216.136 158.358V163.541L232.181 179.558L237.986 179.485L249.873 191.678H254.473L262.304 183.69V178.773L257.791 174.175V160.779H262.088L270.462 169.316H279.462L281.857 166.873V153.231L271.39 142.555V133.81H258.319Z" fill="#E6E7E8" stroke="white" stroke-miterlimit="10"/>
<path d="M99.4082 279.559L104.213 279.564L122.438 298.028L119.326 301.198H113.336L110.516 304.101L99.4082 292.766V279.559Z" fill="#E6E7E8" stroke="white" stroke-miterlimit="10"/>
<path d="M106.698 282.08L112.011 281.96L117.154 276.719V273.089L122.39 268.062V271.091L127.908 276.714H130.015L136.246 283.074V297.15L131.123 302.381H126.703L106.698 282.08Z" fill="#E6E7E8" stroke="white" stroke-miterlimit="10"/>
<path d="M99.4067 279.559L99.7297 278.001L99.0323 259.065L95.1094 255.069L97.0375 253.097L97.1144 250.482H100.612L102.335 252.239L110.201 252.406L114.904 248.755L122.437 256.439L122.391 268.062L117.155 273.089V276.719L112.011 281.96L106.699 282.081L104.212 279.565L99.4067 279.559Z" fill="#E6E7E8" stroke="white" stroke-miterlimit="10"/>
<path d="M116.047 249.921L118.908 247.007V242.938H126.467L129.841 246.374H133.205L141.497 238.355L144.697 241.614H151.236L151.518 250.486L147.461 254.623H142.108L139.518 257.265V265.76L145.887 272.261L140.8 277.45H136.159L133.026 274.254L132.457 271.587L128.646 267.695L122.39 268.061L122.436 256.438L116.047 249.921Z" fill="#E6E7E8" stroke="white" stroke-miterlimit="10"/>
<path d="M109.546 315.772H122.91L131.371 307.141L122.438 298.029L119.325 301.199H113.336L110.515 304.102L109.546 315.772Z" fill="#E6E7E8" stroke="white" stroke-miterlimit="10"/>
<path d="M110.115 329.046L122.628 341.809L131.212 333.869L131.381 316.56L142.981 304.728L136.248 297.149L131.125 302.38H126.704L131.371 307.14L122.91 315.77H109.546L110.115 329.046Z" fill="#E6E7E8" stroke="white" stroke-miterlimit="10"/>
<path d="M148.811 304.144V295.748L154.109 290.35V280.788L156.919 277.922V273.941L154.893 271.87L145.888 272.262L140.801 277.451H136.16L133.027 274.255L132.458 271.588L128.648 267.696L122.392 268.062V271.091L127.909 276.714H130.017L136.248 283.074V297.15L142.981 304.73L148.811 304.144Z" fill="#E6E7E8" stroke="white" stroke-miterlimit="10"/>
<path d="M157.083 269.635H163.775L171.806 277.827L167.272 281.63V297.123L160.391 304.148L148.812 304.143V295.747L154.109 290.349V280.787L156.919 277.921V273.94L154.893 271.869L157.083 269.635Z" fill="#E6E7E8" stroke="white" stroke-miterlimit="10"/>
<path d="M157.232 235.651H159.729L162.77 238.758H166.175L175.488 248.252V256.584L178.688 259.848V265.723L181.18 268.27L171.806 277.827L163.775 269.635H157.083L154.893 271.869L145.889 272.261L139.52 265.759V257.264L142.109 254.623H147.463L151.519 250.485L151.237 241.614L157.232 235.651Z" fill="#E6E7E8" stroke="white" stroke-miterlimit="10"/>
<path d="M166.179 234.842L172.184 234.711L174.548 232.305L189.147 247.192H192.927L198.773 253.17V259.991L202.937 264.244L203.019 268.057L181.178 268.272L178.686 265.724V259.85L175.486 256.586V248.254L166.174 238.76L166.179 234.842Z" fill="#E6E7E8" stroke="white" stroke-miterlimit="10"/>
<path d="M175.737 231.085L176.213 220.791H186.018L196.526 231.509V241.259L192.926 244.931V247.191H189.146L174.547 232.304L175.737 231.085Z" fill="#E6E7E8" stroke="white" stroke-miterlimit="10"/>
<path d="M191.67 215.027L202.895 226.011V234.836L199.51 234.558L196.526 231.509L186.019 220.791L191.67 215.027Z" fill="#E6E7E8" stroke="white" stroke-miterlimit="10"/>
<path d="M205.347 226.011L211.439 219.796L217.162 225.629V230.687L211.844 230.76L207.106 235.191L202.896 234.835V226.011H205.347Z" fill="#E6E7E8" stroke="white" stroke-miterlimit="10"/>
<path d="M211.438 211.527H217.007L219.689 214.257V218.222L228.252 226.957V230.687H217.16V225.629L211.438 219.796V211.527Z" fill="#E6E7E8" stroke="white" stroke-miterlimit="10"/>
<path d="M227.74 214.258L227.474 211.428L223.325 206.893L234.586 195.406L236.171 197.028L245.678 187.335L249.873 191.677L241.458 200.255L247.073 206.135H259.129L265.96 213.102V220.708L256.955 229.893L251.345 224.17L242.822 224.04L232.248 234.768L228.253 230.688V226.958L219.689 218.223V214.258H227.74Z" fill="#E6E7E8" stroke="white" stroke-miterlimit="10"/>
<path d="M234.793 237.221V241.641L240.828 247.808L253.361 235.04L253.351 226.231L251.346 224.17L242.823 224.04L232.249 234.768L234.793 237.221Z" fill="#E6E7E8" stroke="white" stroke-miterlimit="10"/>
<path d="M226.508 255.801L226.908 265.918L240.995 251.768L240.83 247.809L234.795 241.641V237.221L232.251 234.768L228.256 230.688H217.165L211.847 230.761L207.108 235.192L226.508 255.801Z" fill="#E6E7E8" stroke="white" stroke-miterlimit="10"/>
<path d="M136.386 176.601L140.278 180.718L144.519 176.392V170.701L136.386 176.601Z" fill="#E6E7E8" stroke="white" stroke-miterlimit="10"/>
<path d="M197.341 172.484L208.592 184.034L202.192 190.672L189.747 190.724L187.142 188.098V182.888L197.341 172.484Z" fill="#E6E7E8" stroke="white" stroke-miterlimit="10"/>
<path d="M238.473 93.7562L251.698 81.1082H262.395L274.518 93.1755L274.692 120.574L268.108 127.207L251.775 127.406V114.099L243.708 114.496L238.816 109.339L238.473 93.7562Z" fill="#E6E7E8" stroke="white" stroke-miterlimit="10"/>
<path d="M271.39 133.808H273.995L280.215 140.158H300.922L314.122 153.617H325.091L332.003 146.566H338.552L347.69 155.892L347.828 173.876L345.028 176.841H322.957L312.824 166.772L304.804 166.689L291.43 153.455L281.856 153.23L271.39 142.554V133.808Z" fill="#E6E7E8" stroke="white" stroke-miterlimit="10"/>
<path d="M300.555 201.447H305.257L317.441 188.997H327.451L333.307 183.139H338.748L345.03 176.841H322.959L312.826 166.772L304.806 166.688L291.432 153.454L281.858 153.229V166.61L279.463 169.314H270.463L262.089 160.777H257.792V174.173L262.305 178.771V183.688L254.474 191.676H249.874L241.459 200.254L247.074 206.133H259.13L259.135 202.116L267.489 202.027L278.253 213.012H295.975L296.996 205.066L300.555 201.447Z" fill="#E6E7E8" stroke="white" stroke-miterlimit="10"/>
<path d="M201.676 253.17L206.379 248.374L219.691 248.389L207.107 235.192L199.512 234.559L196.528 231.51V241.26L192.928 244.932V247.191L198.774 253.17H201.676Z" fill="#E6E7E8" stroke="white" stroke-miterlimit="10"/>
<path d="M207.999 268.021L216.014 259.845H222.542L226.506 255.802L219.691 248.39L206.378 248.374L201.676 253.171H198.773V259.992L202.937 264.244L203.019 268.057L207.999 268.021Z" fill="#E6E7E8" stroke="white" stroke-miterlimit="10"/>
<path d="M215.544 297.328H226.549L243.39 314.505L250.066 307.69V300.33L250.856 299.53L243.959 292.494H237.549L233.944 288.822V277.733L226.908 270.551L226.903 265.917L226.503 255.801L222.539 259.844H216.011L207.996 268.02L203.017 268.056V284.549L215.544 297.328Z" fill="#E6E7E8" stroke="white" stroke-miterlimit="10"/>
<path d="M254.956 281.284H257.725L261.607 277.319V273.103H252.663L247.089 267.423L252.007 262.082L257.33 267.522H263.596V260.905L245.797 242.744L240.828 247.807L240.992 251.767L226.905 265.916L226.91 270.551L233.946 277.732V288.822L237.551 292.494H243.961L254.956 281.284Z" fill="#E6E7E8" stroke="white" stroke-miterlimit="10"/>
<path d="M275.615 288.347L278.313 285.601V269.689L269.708 260.906H263.595V267.523H257.329L252.006 262.083L247.088 267.424L252.662 273.104H261.606V277.32L257.724 281.285H254.955L243.96 292.495L250.857 299.53L261.247 288.347H275.615Z" fill="#E6E7E8" stroke="white" stroke-miterlimit="10"/>
<path d="M285.467 273.465L281.323 269.244H277.877L269.708 260.906H263.596L257.837 255.027L261.616 251.177L266.57 251.172L283.344 234.067V225.902L295.974 213.013L295.882 224.197L302.569 231.342V249.508L311.317 258.306L296.456 273.465H285.467Z" fill="#E6E7E8" stroke="white" stroke-miterlimit="10"/>
<path d="M295.712 295.659L288.882 289.675L275.615 288.346L278.313 285.6V269.243H281.323L285.466 273.464H296.456V280.087H301.614L306.004 284.559L306.112 295.659H295.712Z" fill="#E6E7E8" stroke="white" stroke-miterlimit="10"/>
<path d="M511.92 317.434L517.684 310.739H524.607L528.427 307.37L535.801 307.443L541.996 301.993H546.996L550.134 298.797H557.155L566.047 289.722L566.39 278.193L558.929 270.582H548.181L532.961 286.107H521.781L517.264 281.499V265.524L512.064 260.22V247.551L501.772 237.053L496.849 242.075V286.254L487.444 295.842H463.04L454.978 304.07V323.769L445.732 333.2V337.269L457.722 349.499L470.947 349.551L478.47 357.23H484.336L492.423 365.479H495.88L499.69 361.587L492.977 361.007L517.864 335.616L511.92 329.941V317.434Z" fill="#E6E7E8" stroke="white" stroke-miterlimit="10"/>
<path d="M517.864 324.978L522.674 320.066V344.897L514.941 352.785H508.321L499.69 361.588L492.978 361.007L517.864 335.617V324.978Z" fill="#E6E7E8" stroke="white" stroke-miterlimit="10"/>
<path d="M492.427 365.479L484.34 357.23H478.473L470.95 349.551L464.099 349.598L464.053 361.211L461.022 364.307L472.207 364.877L484.611 377.886H491.468L494.893 373.723L512.385 374.293L526.431 359.966H532.338L550.189 341.757V332.169L560.296 321.859L554.389 315.823V309.651L546.953 302.066H541.953L535.805 307.443H528.39L524.569 310.812H517.641L511.877 317.507V330.014L517.821 335.69V325.05L522.677 320.065V344.896L514.944 352.784H508.324L495.883 365.479H492.427Z" fill="#E6E7E8" stroke="white" stroke-miterlimit="10"/>
<path d="M582.205 334.628V339.692L587.277 344.86V358.946L578.21 368.189H555.662L542.417 381.7H519.761L512.428 374.22L526.468 359.893H532.381L550.232 341.685V332.097L560.339 321.787L554.432 315.75V309.578L546.996 301.994L550.134 298.798H557.155L566.047 289.722L575.441 299.849L575.508 305.556L590.102 320.442V326.322L582.205 334.628Z" fill="#E6E7E8" stroke="white" stroke-miterlimit="10"/>
<path d="M683.235 334.178H672.502L669.251 337.5H660.431L654.544 345.409L660.134 351.11H669.866L674.754 341.606H675.953L683.235 334.178Z" fill="#E6E7E8" stroke="white" stroke-miterlimit="10"/>
<path d="M659.838 300.9L650.459 300.895L642.397 309.122L632.962 299.498L639.946 292.368V282.252H628.998V269.955L623.019 263.855V247.996L631.931 238.905H636.623L642.895 232.502V222.407L633.787 213.117V199.768L638.982 194.475H654.741L659.289 189.83H669.248L675.453 196.159V205.883L679.704 210.219L661.802 228.48V242.451L655.525 248.854V277.367L663.587 284.768H669.304L679.725 274.144L687.801 273.972L701.903 288.121L702.073 298.844L710.795 307.742L710.395 331.803L700.344 321.556L694.334 327.692L699.134 332.588V342.322L687.801 353.882H683.524V347.563L676.786 340.753L683.237 334.178H672.504L669.253 337.499H660.433L654.223 331.16V317.115L659.838 311.387V300.9Z" fill="#E6E7E8" stroke="white" stroke-miterlimit="10"/>
<path d="M667.501 78.8385L667.671 66.8392L702.967 31.6622H716.551V24.2973L726.751 13.8933L733.325 20.5992V24.7472L730.022 28.1158L731.325 30.2604L739.555 29.8524L743.099 33.4668V37.5782L734.489 46.3659L725.776 46.7164V50.9742L722.756 54.0552L716.12 53.6001L717.023 58.9982L740.996 83.6927L740.166 96.5656L731.756 105.144H724.274L718.966 99.7302H707.91L698.629 109.203V116.317L687.111 128.065H668.763L665.707 131.178L658.809 124.142V120.815L664.378 115.14L664.65 104.966L653.486 93.5788L667.501 78.8385Z" fill="#E6E7E8" stroke="white" stroke-miterlimit="10"/>
<path d="M481.241 339.237V345.901L486.667 351.43H494.159L500.343 345.122V338.107H492.118L489.569 340.712L488.236 339.352L481.241 339.237Z" fill="#E6E7E8" stroke="white" stroke-miterlimit="10"/>
<path d="M543.334 361.979V358.71L549.929 351.983H560.513V357.538L563.754 360.844L560.862 363.794H551.611L549.026 366.431L543.334 361.979Z" fill="#E6E7E8" stroke="white" stroke-miterlimit="10"/>
<path d="M410.193 182.983L400.644 173.421V165.747L403.701 162.63V154.507L395.568 162.431H385.988L378.583 169.99V177.909H384.122L393.183 187.147V198.304H389.455V189.532L383.435 183.391H378.583V186.508L368.44 196.855H355.574L350.466 191.645H363.261L371.286 183.459V164.236L386.793 148.418V133.709H375.337L359.251 150.113V175.587L353.748 181.199L347.431 174.755L338.867 183.485H333.313L327.57 189.343H325.031V204.445L345.518 224.29H356.994L371.04 238.623H387.111L400.696 252.479L406.126 246.939L406.295 197.101L410.275 193.042L410.193 182.983Z" fill="#73C6F0"/>
<path d="M410.192 178.396L400.644 168.834V161.155L403.7 158.043V149.914L395.567 157.844H385.988L378.583 165.402V173.316H384.121L393.183 182.554V193.716H389.454V184.939L383.434 178.798H378.583V181.921L368.44 192.262H355.573L350.466 187.052H363.26L371.286 178.872V159.648L386.793 143.831V129.116H375.337L359.25 145.52V170.994L353.748 176.612L347.43 170.162L338.866 178.898H333.313L327.569 184.756H326.062V199.852L345.517 219.698H356.994L371.04 234.035H387.111L400.695 247.892L406.126 242.347L406.295 192.513L410.274 188.454L410.192 178.396Z" fill="#A1DAF8"/>
<path d="M373.345 218.584C374.877 218.584 376.119 217.342 376.119 215.81C376.119 214.278 374.877 213.036 373.345 213.036C371.813 213.036 370.571 214.278 370.571 215.81C370.571 217.342 371.813 218.584 373.345 218.584Z" fill="#48576E"/>
<path d="M438.502 215H437.034V206.545C437.034 205.877 437.075 205.06 437.157 204.093H437.122C436.981 204.661 436.855 205.068 436.744 205.314L432.438 215H431.717L427.419 205.385C427.296 205.104 427.17 204.673 427.041 204.093H427.006C427.053 204.597 427.076 205.42 427.076 206.562V215H425.652V202.396H427.604L431.471 211.186C431.77 211.859 431.963 212.363 432.051 212.697H432.104C432.355 212.006 432.558 211.49 432.71 211.15L436.656 202.396H438.502V215ZM448.504 215H441.824V202.396H448.223V203.732H443.301V207.925H447.854V209.252H443.301V213.664H448.504V215ZM452.406 210.236V215H450.93V202.396H454.393C455.74 202.396 456.783 202.725 457.521 203.381C458.266 204.037 458.638 204.963 458.638 206.158C458.638 207.354 458.225 208.332 457.398 209.094C456.578 209.855 455.468 210.236 454.067 210.236H452.406ZM452.406 203.732V208.9H453.953C454.973 208.9 455.749 208.669 456.282 208.206C456.821 207.737 457.091 207.078 457.091 206.229C457.091 204.564 456.106 203.732 454.138 203.732H452.406ZM467.699 215H461.02V202.396H467.418V203.732H462.496V207.925H467.049V209.252H462.496V213.664H467.699V215ZM477.578 203.732H473.939V215H472.463V203.732H468.833V202.396H477.578V203.732ZM484.645 215.211C482.857 215.211 481.425 214.622 480.347 213.444C479.274 212.267 478.738 210.734 478.738 208.848C478.738 206.82 479.286 205.203 480.382 203.996C481.478 202.789 482.969 202.186 484.855 202.186C486.596 202.186 487.996 202.771 489.057 203.943C490.123 205.115 490.656 206.647 490.656 208.54C490.656 210.597 490.111 212.223 489.021 213.418C487.932 214.613 486.473 215.211 484.645 215.211ZM484.75 203.521C483.426 203.521 482.351 203.999 481.524 204.954C480.698 205.909 480.285 207.163 480.285 208.716C480.285 210.269 480.687 211.52 481.489 212.469C482.298 213.412 483.35 213.884 484.645 213.884C486.027 213.884 487.117 213.433 487.914 212.53C488.711 211.628 489.109 210.365 489.109 208.742C489.109 207.078 488.723 205.792 487.949 204.884C487.176 203.976 486.109 203.521 484.75 203.521ZM500.456 215H498.979V209.639H497.143C496.791 209.639 496.48 209.735 496.211 209.929C495.947 210.116 495.663 210.541 495.358 211.203L493.776 215H492.019L493.935 210.79C494.058 210.515 494.245 210.225 494.497 209.92C494.755 209.609 495.054 209.39 495.394 209.261V209.226C494.556 209.044 493.902 208.66 493.434 208.074C492.971 207.488 492.739 206.779 492.739 205.947C492.739 204.875 493.111 204.017 493.855 203.372C494.605 202.722 495.587 202.396 496.8 202.396H500.456V215ZM498.979 208.303V203.732H496.932C496.1 203.732 495.452 203.929 494.989 204.321C494.532 204.714 494.304 205.268 494.304 205.982C494.304 206.697 494.538 207.263 495.007 207.679C495.476 208.095 496.105 208.303 496.896 208.303H498.979ZM512.471 215H510.669L507.769 210.175C507.681 210.028 507.584 209.82 507.479 209.551H507.443C507.385 209.686 507.285 209.894 507.145 210.175L504.156 215H502.346L506.564 208.663L502.68 202.396H504.49L507.065 206.826C507.235 207.119 507.385 207.412 507.514 207.705H507.549C507.736 207.318 507.9 207.014 508.041 206.791L510.722 202.396H512.418L508.454 208.646L512.471 215ZM524.143 215H522.508L521.172 211.467H515.828L514.571 215H512.928L517.762 202.396H519.291L524.143 215ZM520.688 210.14L518.711 204.77C518.646 204.594 518.582 204.312 518.518 203.926H518.482C518.424 204.283 518.356 204.564 518.28 204.77L516.32 210.14H520.688ZM535.48 215H534.004V209.252H527.482V215H526.006V202.396H527.482V207.925H534.004V202.396H535.48V215ZM545.465 215H538.785V202.396H545.184V203.732H540.262V207.925H544.814V209.252H540.262V213.664H545.465V215ZM553.533 213.348V215H552.162V213.348H551.925C550.519 213.348 549.355 212.87 548.436 211.915C547.521 210.954 547.064 209.773 547.064 208.373C547.064 207.037 547.521 205.912 548.436 204.998C549.35 204.084 550.519 203.627 551.942 203.627H552.162V202.045H553.533V203.627H553.744C555.186 203.627 556.357 204.078 557.26 204.98C558.168 205.877 558.622 207.008 558.622 208.373C558.622 209.756 558.162 210.931 557.242 211.897C556.328 212.864 555.168 213.348 553.762 213.348H553.533ZM553.533 204.866V212.047H553.762C554.764 212.047 555.566 211.716 556.17 211.054C556.773 210.386 557.075 209.498 557.075 208.391C557.075 207.336 556.773 206.486 556.17 205.842C555.566 205.191 554.758 204.866 553.744 204.866H553.533ZM552.162 212.047V204.866H551.942C550.946 204.866 550.141 205.194 549.525 205.851C548.916 206.507 548.611 207.354 548.611 208.391C548.611 209.504 548.913 210.392 549.517 211.054C550.12 211.716 550.923 212.047 551.925 212.047H552.162ZM568.422 203.732H564.783V215H563.307V203.732H559.677V202.396H568.422V203.732ZM577.088 215H570.408V202.396H576.807V203.732H571.885V207.925H576.438V209.252H571.885V213.664H577.088V215ZM586.053 203.768H580.999V215H579.514V202.396H586.053V203.768ZM597.76 215H596.125L594.789 211.467H589.445L588.188 215H586.545L591.379 202.396H592.908L597.76 215ZM594.306 210.14L592.328 204.77C592.264 204.594 592.199 204.312 592.135 203.926H592.1C592.041 204.283 591.974 204.564 591.897 204.77L589.938 210.14H594.306ZM598.814 214.473V212.873C599.799 213.594 600.915 213.954 602.163 213.954C603.071 213.954 603.792 213.734 604.325 213.295C604.864 212.855 605.134 212.264 605.134 211.52C605.134 209.902 604.041 209.094 601.855 209.094H600.546V207.872H601.75C602.682 207.872 603.402 207.67 603.912 207.266C604.428 206.861 604.686 206.29 604.686 205.552C604.686 204.919 604.472 204.412 604.044 204.031C603.622 203.65 603.039 203.46 602.295 203.46C601.24 203.46 600.215 203.791 599.219 204.453V202.959C600.145 202.443 601.211 202.186 602.418 202.186C603.613 202.186 604.554 202.47 605.239 203.038C605.925 203.606 606.268 204.354 606.268 205.279C606.268 206.914 605.471 207.945 603.877 208.373V208.408C604.744 208.508 605.433 208.833 605.942 209.384C606.452 209.935 606.707 210.617 606.707 211.432C606.707 212.586 606.297 213.506 605.477 214.191C604.656 214.871 603.534 215.211 602.11 215.211C600.687 215.211 599.588 214.965 598.814 214.473Z" fill="#48576E"/>
</svg>
